{
  "accessors": [
    {
      "bufferView": 2,
      "componentType": 5126,
      "count": 15805,
      "max": [
        -0.0004975682240910828,
        0.042184002697467804,
        0.046506453305482864
      ],
      "min": [
        -0.06347940862178802,
        -0.03016887977719307,
        -0.04103107750415802
      ],
      "type": "VEC3"
    },
    {
      "bufferView": 2,
      "byteOffset": 189660,
      "componentType": 5126,
      "count": 15805,
      "max": [
        0.9999513030052185,
        0.9999808669090271,
        0.9999814033508301
      ],
      "min": [
        -0.9998481273651123,
        -0.9996109008789063,
        -0.9998383522033691
      ],
      "type": "VEC3"
    },
    {
      "bufferView": 3,
      "componentType": 5126,
      "count": 15805,
      "max": [
        0.9868740439414978,
        0.9992191791534424,
        0.9960336089134216,
        1.0
      ],
      "min": [
        -0.9891225695610046,
        -0.9989901185035706,
        -0.9883272647857666,
        -1.0
      ],
      "type": "VEC4"
    },
    {
      "bufferView": 1,
      "componentType": 5126,
      "count": 15805,
      "max": [
        0.9993249773979187,
        0.9808350205421448
      ],
      "min": [
        0.00012199999764561653,
        0.00036700000055134296
      ],
      "type": "VEC2"
    },
    {
      "bufferView": 0,
      "componentType": 5125,
      "count": 82044,
      "type": "SCALAR"
    }
  ],
  "asset": {
    "extras": {
      "author": "STUDIO DUCKBILL (https://sketchfab.com/DuckbillStudio)",
      "license": "CC-BY-4.0 (http://creativecommons.org/licenses/by/4.0/)",
      "source": "https://sketchfab.com/3d-models/mango-ef55eaf1a8ef4c168ffb0560145cb229",
      "title": "Mango"
    },
    "generator": "Sketchfab-12.67.0",
    "version": "2.0"
  },
  "bufferViews": [
    {
      "buffer": 0,
      "byteLength": 328176,
      "name": "floatBufferViews",
      "target": 34963
    },
    {
      "buffer": 0,
      "byteLength": 126440,
      "byteOffset": 328176,
      "byteStride": 8,
      "name": "floatBufferViews",
      "target": 34962
    },
    {
      "buffer": 0,
      "byteLength": 379320,
      "byteOffset": 454616,
      "byteStride": 12,
      "name": "floatBufferViews",
      "target": 34962
    },
    {
      "buffer": 0,
      "byteLength": 252880,
      "byteOffset": 833936,
      "byteStride": 16,
      "name": "floatBufferViews",
      "target": 34962
    }
  ],
  "buffers": [
    {
      "byteLength": 1086816,
      "uri": "scene.bin"
    }
  ],
  "images": [
    {
      "uri": "textures/AppleMango_u0_v0_baseColor.jpeg"
    },
    {
      "uri": "textures/AppleMango_u0_v0_normal.png"
    }
  ],
  "materials": [
    {
      "name": "AppleMango_u0_v0",
      "normalTexture": {
        "index": 1,
        "scale": 0.7375259551734463
      },
      "pbrMetallicRoughness": {
        "baseColorTexture": {
          "index": 0
        },
        "metallicFactor": 0.0,
        "roughnessFactor": 0.42073271253204647
      }
    }
  ],
  "meshes": [
    {
      "name": "Object_0",
      "primitives": [
        {
          "attributes": {
            "NORMAL": 1,
            "POSITION": 0,
            "TANGENT": 2,
            "TEXCOORD_0": 3
          },
          "indices": 4,
          "material": 0,
          "mode": 4
        }
      ]
    }
  ],
  "nodes": [
    {
      "children": [
        1
      ],
      "matrix": [
        1.0,
        0.0,
        0.0,
        0.0,
        0.0,
        2.220446049250313e-16,
        -1.0,
        0.0,
        0.0,
        1.0,
        2.220446049250313e-16,
        0.0,
        0.0,
        0.0,
        0.0,
        1.0
      ],
      "name": "Sketchfab_model"
    },
    {
      "children": [
        2
      ],
      "name": "AppleMango.obj.cleaner.materialmerger.gles"
    },
    {
      "mesh": 0,
      "name": "Object_2"
    }
  ],
  "samplers": [
    {
      "magFilter": 9729,
      "minFilter": 9987,
      "wrapS": 10497,
      "wrapT": 10497
    }
  ],
  "scene": 0,
  "scenes": [
    {
      "name": "Sketchfab_Scene",
      "nodes": [
        0
      ]
    }
  ],
  "textures": [
    {
      "sampler": 0,
      "source": 0
    },
    {
      "sampler": 0,
      "source": 1
    }
  ]
}
